<svg width="492" height="152" viewBox="0 0 492 152" fill="none" xmlns="http://www.w3.org/2000/svg">
<path d="M358.114 9.26393C358.114 17.1467 358.167 21.0478 358.141 28.5149C358.114 35.7676 358.543 43.0738 357.846 50.2729C356.438 64.7647 348.167 74.9265 335.914 82.0451C314.92 94.2445 286.928 91.6706 269.286 75.8649C260.384 67.8883 255.504 57.9411 255.585 45.7684C255.665 33.5958 255.679 21.4232 255.545 9.26393C255.537 8.58828 255.537 7.70952 255.539 6.98863C255.541 6.25186 256.139 5.65771 256.876 5.65771C257.561 5.65771 258.399 5.65772 259.111 5.65772C263.427 5.65772 271.163 5.65772 271.163 5.65772L273.267 5.65774C274.008 5.65774 274.608 6.25775 274.608 6.99813C274.608 7.66889 274.608 8.46338 274.608 9.06284C274.608 19.9605 274.608 30.8342 274.42 41.8807C273.602 55.9838 281.78 64.1883 292.21 67.9017C306.206 72.8888 319.491 71.575 331.355 62.1238C336.49 58.0349 339.118 52.5385 339.037 45.7684C338.903 33.5958 339.077 21.4232 338.943 9.26393C338.936 8.54639 338.937 7.72654 338.939 7.02494C338.941 6.28455 339.543 5.68452 340.284 5.68452C340.953 5.68452 341.75 5.68452 342.549 5.68452C347.209 5.68452 351.895 5.72955 356.773 5.73709C357.513 5.73823 358.114 6.33836 358.114 7.07875V9.26393Z" fill="white"/>
<path d="M363.302 87.139C364.925 84.2299 366.332 81.857 367.633 79.578C379.175 59.2947 390.664 38.9847 402.287 18.7684C409.754 5.77802 422.664 0.187719 435.681 4.19611C443.323 6.55557 448.792 11.623 452.707 18.4869C463.043 36.6252 473.392 54.7635 483.729 72.9018C486.262 77.3392 489.212 82.1788 492 87.0586C490.659 87.0586 489.413 87.0586 488.595 87.0586C483.675 87.0854 478.755 86.8575 473.848 87.1524C470.778 87.3401 469.304 86.0933 467.883 83.573C457.533 65.1934 447.036 46.8942 436.58 28.5682C431.485 19.6532 423.83 19.5996 418.669 28.5682C408.253 46.6663 397.903 64.7778 387.701 82.9965C386.026 85.9727 384.269 87.3803 380.717 87.1792C375.368 87.139 370.676 87.139 364.643 87.139H363.302Z" fill="white"/>
<path d="M0 87.139C1.62213 84.2299 3.02969 81.857 4.33007 79.578C15.8726 59.2947 27.3616 38.9847 38.9846 18.7684C46.4517 5.77802 59.3617 0.187719 72.3789 4.19611C80.0203 6.55557 85.49 11.623 89.4045 18.4869C99.7406 36.6252 110.09 54.7635 120.426 72.9018C122.96 77.3392 125.909 82.1788 128.698 87.0585C127.357 87.0585 126.11 87.0585 125.292 87.0585C120.372 87.0854 115.452 86.8575 110.546 87.1524C107.476 87.3401 106.001 86.0933 104.58 83.573C94.2307 65.1934 83.7338 46.8942 73.2771 28.5682C68.1828 19.6532 60.528 19.5996 55.3667 28.5682C44.9502 46.6663 34.6008 64.7778 24.3988 82.9965C22.7231 85.9727 20.9669 87.3803 17.4143 87.1792C12.0654 87.139 7.3733 87.139 1.3406 87.139H0Z" fill="white"/>
<path d="M241.604 45.6364C241.345 71.2602 216.9 91.4746 186.326 91.1557C156.184 90.841 132.147 69.9802 132.73 44.6628C133.292 20.1134 157.438 -0.323447 188.167 0.00387815C217.517 0.314418 241.852 21.0283 241.604 45.6406V45.6364ZM215.009 58.1168C221.866 47.8522 219.885 32.9673 206.193 24.3561C192.495 15.7407 173.399 17.7718 162.538 28.9134C152.064 39.6522 153.403 55.5275 165.667 65.0284C171.922 69.8753 179.375 72.2002 187.888 72.0911C191.112 72.0491 194.237 71.6001 197.406 70.6643C197.018 70.1229 196.789 69.7956 196.555 69.4683C191.515 62.4853 188.868 54.9023 188.545 46.7317C188.51 45.7959 188.848 45.5357 189.933 45.5399C196.565 45.5777 203.198 45.5861 209.825 45.5399C210.974 45.5315 211.278 45.8379 211.318 46.7821C211.472 50.3491 212.497 53.7524 214.273 56.9963C214.457 57.3278 214.696 57.6384 215.014 58.1168H215.009Z" fill="white"/>
<path d="M219.851 86.7498C221.522 85.6755 223.159 84.6726 224.727 83.6025C229.234 80.5265 233.1 76.9385 236.31 72.8637C236.857 72.1671 237.419 71.9572 238.354 72.0915C239.454 72.2468 240.574 72.3265 241.688 72.3685C242.365 72.3937 242.648 72.5783 242.648 73.17C242.633 78.9024 242.633 84.639 242.643 90.3714C242.643 90.9547 242.365 91.1771 241.668 91.1603C234.165 90.9757 226.971 89.679 220.144 87.01C220.074 86.9848 220.03 86.9135 219.856 86.754L219.851 86.7498Z" fill="white"/>
<path d="M77.6877 142.138V118.042H82.1626V138.351H94.7613V142.138H77.6877ZM187.448 142.138V118.042H191.923V142.138H187.448ZM287.595 142.138V118.042H305.185V121.794H292.07V142.138H287.595ZM291.691 132.912V129.126H303.704V132.912H291.691ZM398.666 142.138V118.042H416.256V121.794H403.141V138.386H416.738V142.138H398.666ZM402.797 131.742V128.059H414.776V131.742H402.797Z" fill="white"/>
</svg>
